PathFileType	4	(X/Y/Z)	Kaydara																																																																																																																									
DataRate	CameraRate	NumFrames	NumMarkers	Units	OrigDataRate	OrigDataStartFrame	OrigNumFrames																																																																																																																					
30	30	9	41	mm	30	114	151																																																																																																																					
Frame#	Time	SALE_LFHD			SALE_RFHD			SALE_LBHD			SALE_RBHD			SALE_LFTShould			SALE_RFTShould			SALE_LRRShould			SALE_RRRShould			SALE_T10			SALE_STRN			SALE_TRUN			SALE_LSHO			SALE_LUPA			SALE_LELB			SALE_LFRM			SALE_LWRA			SALE_LWRB			SALE_LFIN			SALE_RSHO			SALE_RUPA			SALE_RELB			SALE_RFRM			SALE_RWRB			SALE_RFIN			SALE_LFWT			SALE_RFWT			SALE_LBWT			SALE_RBWT			SALE_LTHI			SALE_LKNE			SALE_RWRA			SALE_LSHN			SALE_LANK			SALE_LHEE			SALE_LTOE			SALE_RTHI			SALE_RKNE			SALE_RSHN			SALE_RANK			SALE_RHEE			SALE_RTOE		
		X1	Y1	Z1	X2	Y2	Z2	X3	Y3	Z3	X4	Y4	Z4	X5	Y5	Z5	X6	Y6	Z6	X7	Y7	Z7	X8	Y8	Z8	X9	Y9	Z9	X10	Y10	Z10	X11	Y11	Z11	X12	Y12	Z12	X13	Y13	Z13	X14	Y14	Z14	X15	Y15	Z15	X16	Y16	Z16	X17	Y17	Z17	X18	Y18	Z18	X19	Y19	Z19	X20	Y20	Z20	X21	Y21	Z21	X22	Y22	Z22	X23	Y23	Z23	X24	Y24	Z24	X25	Y25	Z25	X26	Y26	Z26	X27	Y27	Z27	X28	Y28	Z28	X29	Y29	Z29	X30	Y30	Z30	X31	Y31	Z31	X32	Y32	Z32	X33	Y33	Z33	X34	Y34	Z34	X35	Y35	Z35	X36	Y36	Z36	X37	Y37	Z37	X38	Y38	Z38	X39	Y39	Z39	X40	Y40	Z40	X41	Y41	Z41
																																																																																																																												
114	3.777	205.39757	1633.16238	402.72736	77.01458	1620.40802	379.9815	226.35586	1609.51782	273.60338	101.91205	1596.70654	258.34398	241.9125	1368.61298	360.4229	101.58395	1363.62473	362.54959	235.00412	1423.00186	248.21304	87.44633	1428.61237	261.29536	158.85964	1277.16888	177.47335	167.4876	1292.10892	406.30676	164.65542	1201.24001	437.08054	355.42309	1393.66959	287.13175	401.03874	1181.04172	291.08139	389.06914	1068.54408	283.09193	421.11122	970.34134	341.43364	367.89043	857.41035	452.28706	431.0923	839.6273	411.6283	434.14181	813.77724	469.16538	-4.75448	1394.08432	301.66151	-32.8426	1188.18283	197.12738	-70.96421	1084.14047	214.22216	-68.58646	979.46259	170.09594	-98.56053	837.43004	167.46504	-108.70628	778.09502	199.90316	295.8169	952.44232	331.14193	17.16948	947.02965	340.54283	226.46149	1012.31277	169.33872	54.61905	1004.79668	170.24319	281.20966	665.18524	144.08159	269.42093	486.96499	203.77918	-55.96894	824.91341	228.61725	258.61162	286.71801	176.27645	243.54582	110.57064	105.70504	201.44281	66.62442	38.92479	221.50448	60.60748	233.87802	1.50746	684.43764	289.59005	30.35677	584.5837	471.23623	81.13645	367.41684	457.61921	44.7109	138.80082	324.2894	32.27959	66.75155	429.36039	101.73788	90.06723	251.62922
115	3.81	200.87679	1619.13162	468.06011	73.3967	1604.27582	441.15288	226.33797	1598.04001	339.1885	102.68511	1583.09799	319.84442	242.62049	1353.88123	421.0009	100.79306	1349.46747	419.28215	239.90417	1407.62054	308.59781	91.86628	1415.35278	317.06802	164.42123	1261.8058	236.63555	166.8071	1278.3342	465.14683	162.86907	1187.67578	496.62575	358.95069	1377.64618	351.81599	403.06709	1165.96542	374.86469	394.006	1052.65152	379.53491	413.79753	969.19479	461.03001	343.59367	884.3972	585.02533	414.076	860.81589	562.35741	404.57069	850.24323	624.73686	-2.2036	1381.30432	353.93387	-21.95792	1183.14476	235.32179	-67.68187	1080.22812	241.11385	-64.25283	978.74771	191.5206	-98.72682	838.6969	175.91394	-115.83498	778.90701	203.18401	296.96634	941.35574	390.84389	18.43963	931.64894	407.72316	223.06911	997.75116	229.50071	49.80781	986.32858	234.50092	279.70068	669.94751	187.16665	273.57224	486.86302	230.47136	-63.02042	819.97337	239.11285	261.07311	288.68555	190.48403	244.26828	116.62404	109.62613	200.65071	76.67928	41.35411	222.1487	59.94775	235.0098	-1.29541	667.30461	370.854	31.2684	580.97847	550.64106	81.45179	367.6664	572.88982	44.43299	112.83645	506.50589	37.46724	69.09799	626.82343	100.60164	47.98398	446.10954
116	3.843	198.22323	1603.6673	532.14481	71.47796	1587.89429	501.75842	227.29675	1582.73056	403.77502	104.26252	1567.09122	380.77545	243.08216	1330.51224	486.30798	100.29827	1330.06287	479.48009	243.68048	1390.56488	372.84969	94.74304	1399.38797	375.85617	168.82158	1244.8716	298.05616	165.16836	1257.3204	524.95476	160.4104	1167.50954	557.75768	360.78007	1359.84818	421.01608	401.85589	1148.59077	454.83284	392.42283	1036.49254	469.55811	405.23823	971.55853	568.38535	324.18533	918.66982	701.19766	395.61115	890.36346	691.8232	379.83475	896.22437	753.83057	-0.92822	1365.04822	408.53477	-13.5425	1174.30573	279.57449	-64.0996	1073.32771	273.03612	-59.98778	975.25497	218.81029	-97.99722	838.06053	189.89714	-122.18672	779.13704	212.33761	296.50305	929.1848	451.78673	20.98805	916.14128	479.29699	217.03356	983.50189	291.47837	41.76001	966.20728	301.29801	276.1245	669.52736	240.58678	273.10875	483.95397	271.46036	-71.29636	813.88702	255.82926	261.13396	288.27885	214.55837	245.56374	123.80856	118.26827	202.20787	89.54559	46.13452	222.10342	58.87718	237.37656	7.65189	645.94345	439.41387	29.78907	565.60417	620.15106	75.67475	368.00282	678.15735	41.81726	106.54169	677.42096	37.98698	85.60984	808.97766	97.12718	31.11782	631.70933
117	3.877	198.28817	1590.69229	595.08434	71.31381	1576.76437	563.72879	227.94525	1568.59741	466.78699	104.813	1555.05646	442.55711	238.05597	1312.03461	553.8739	95.85616	1312.90634	543.06587	243.22134	1378.03299	441.06453	93.21003	1385.77087	439.65714	170.68447	1231.07323	364.40525	160.68117	1237.48344	589.82513	156.22898	1147.65251	622.12307	357.7507	1347.46414	494.95419	397.70966	1136.41045	531.381	389.58755	1025.79994	548.97007	396.81107	977.94357	659.01093	309.51868	956.22948	795.71747	378.86097	922.60521	795.26222	362.84885	944.33342	853.58444	-3.01732	1350.41672	467.99965	-7.4712	1164.05739	331.64898	-61.29003	1066.40465	316.83514	-56.02506	972.68867	256.77864	-95.84927	839.33594	214.73715	-126.385	782.10403	230.94946	296.09453	916.62422	517.88429	20.69462	901.99402	550.86391	211.73508	969.64287	358.36758	35.82299	951.50665	372.86221	272.33551	666.31546	300.24992	274.36007	479.44939	320.00893	-78.37876	810.08545	281.73668	262.05677	287.70229	244.6373	248.58255	134.47471	131.04188	206.72817	108.09132	54.90304	222.83243	57.73417	241.34092	12.79743	629.63223	503.14632	29.89763	546.17973	685.57747	80.70743	370.27969	765.6308	40.77367	117.8817	810.99678	44.79398	110.14215	943.75145	91.37011	31.14771	770.29961
118	3.91	199.55246	1583.19244	656.90475	71.56223	1573.19122	627.51221	226.28376	1558.53241	528.28552	102.33929	1549.03275	506.10092	231.81721	1304.59305	625.18684	88.00575	1302.68463	611.82392	237.18626	1370.71396	510.44666	87.17716	1375.90805	507.0639	168.69539	1221.00693	434.92516	153.57038	1229.96506	661.15891	149.59303	1141.50589	696.11542	350.92995	1342.68478	567.01347	391.90628	1132.16553	602.65991	385.07774	1021.17783	618.00587	388.95027	983.59543	733.01826	299.29001	982.71103	869.3824	364.67537	942.21237	873.74023	355.00671	978.69225	925.61508	-8.7081	1339.71252	534.09431	-4.11192	1157.63771	394.97108	-60.1465	1062.07047	372.77187	-52.55041	971.43753	309.95319	-92.07321	841.6243	259.36535	-127.63386	787.36923	268.31173	296.38714	905.57938	588.74512	20.50556	894.23088	623.99273	210.56051	960.39383	430.97294	34.35595	946.30722	446.61064	267.50839	661.25198	366.6774	274.79671	473.80684	380.04192	-81.91321	807.32254	326.08482	263.16589	289.22297	283.72232	254.27021	150.70152	152.28998	214.90833	135.08043	72.55811	224.18789	55.52609	248.87951	7.65567	624.16496	579.79279	36.16803	546.06079	762.21336	88.1393	362.66991	836.94405	46.74074	109.8839	881.22887	62.12706	99.11181	1013.90305	94.09818	23.17985	836.06491
119	3.943	199.78497	1582.45361	717.32872	70.52436	1575.99564	692.17773	221.64543	1552.60071	588.71426	96.69877	1546.62064	570.70709	222.85685	1307.19025	698.07838	79.87012	1302.08176	684.5948	227.29259	1368.61816	580.49339	77.14396	1370.51804	578.45642	162.67303	1216.17561	508.45459	145.67679	1232.39822	735.29984	143.04526	1144.02023	771.64848	342.7375	1343.63373	636.46915	386.6124	1133.10089	665.90347	379.39041	1021.75797	680.84969	381.87889	981.60271	795.50797	293.87955	982.67708	931.03447	356.98032	939.16786	935.93674	353.65768	981.52138	983.14835	-17.99438	1332.42508	607.58446	-6.228	1154.12048	468.95565	-60.66881	1057.21863	444.14642	-51.92843	967.99232	379.97704	-89.03995	840.22118	326.06464	-126.39526	788.6969	329.48349	294.04676	899.11217	663.49289	18.63806	893.39005	699.44496	211.05972	957.37503	505.92007	33.29324	946.34468	521.78482	262.77754	651.36505	442.1452	273.96835	462.66586	459.44347	-81.55137	801.24298	391.1935	265.49898	289.73986	338.40416	261.95375	172.42691	188.10579	224.90585	172.31153	107.51889	225.2025	50.20952	258.81023	2.53089	626.03374	658.05901	41.52667	539.72336	830.93475	95.17693	348.8958	893.19145	54.7549	89.78205	902.86827	68.59936	56.64973	1032.12875	95.37015	24.15531	850.01854
120	3.977	197.58451	1588.57269	776.3765	68.06495	1584.99603	756.42639	214.25617	1551.21521	649.54666	88.52218	1548.06549	636.67145	215.69078	1314.42276	774.88495	72.58921	1303.78998	763.24417	216.69573	1375.26535	657.93022	66.16262	1372.31232	657.71111	154.59256	1221.94809	585.0296	140.95651	1235.78606	813.55247	140.35248	1148.43666	850.0528	334.91199	1350.3653	711.735	379.15928	1137.60475	729.65546	371.9558	1026.07285	735.19974	378.82347	973.05473	844.85245	296.24767	957.56973	982.4411	359.27147	914.32564	980.03342	355.83221	948.74275	1033.44261	-27.31484	1330.54718	689.30054	-19.27937	1149.22325	551.66973	-66.73198	1050.14137	530.1791	-55.52056	961.8499	466.15707	-89.30254	834.21013	415.00389	-122.44989	780.81383	416.79562	291.5539	901.49979	731.46896	20.48501	900.32272	768.18367	212.38005	958.86627	572.4855	33.41748	958.21678	591.05247	256.89945	631.02806	530.62557	272.40625	442.79934	568.91273	-75.96416	793.04573	477.76222	268.34629	288.86183	419.28185	270.38363	202.16631	250.24693	240.08873	226.09589	173.81111	225.30767	55.90246	277.09209	2.36719	633.39569	720.37064	45.81424	543.21747	892.56454	104.22747	347.99068	939.50958	57.63471	94.44374	930.51727	76.03333	48.40742	1051.84319	101.47983	32.10007	857.95807
121	4.01	193.6227	1594.3399	836.34323	63.05418	1589.53033	820.87845	206.08376	1546.95999	712.00935	79.58849	1543.39188	703.65051	210.18927	1316.27716	847.87415	70.36096	1302.73178	841.05698	211.30043	1384.91425	735.60989	59.54647	1379.31671	739.46884	147.50676	1235.16518	655.41458	139.79306	1235.07851	888.27446	141.56047	1144.5195	918.80577	328.97331	1356.64276	790.21408	374.51332	1142.1405	788.62083	367.26307	1032.56081	781.26839	379.9091	958.41347	879.96834	302.98092	915.54459	1017.286	365.47745	873.94051	1002.24655	363.10055	891.27625	1063.49731	-32.76023	1334.00192	773.67996	-33.8433	1147.92496	639.1737	-73.57841	1045.21118	625.04211	-62.50432	954.40468	563.77766	-93.57531	822.60635	521.54316	-117.29883	763.27385	527.72717	288.7289	904.57977	795.35446	17.46239	914.99519	831.52756	214.82807	960.29984	633.6615	35.43889	970.59105	653.06862	255.47842	605.3067	632.90325	271.97598	427.66499	694.76974	-67.55878	786.38809	582.64008	264.84915	292.78793	528.40374	269.99701	239.31637	345.95913	236.06277	274.79528	274.56593	235.91366	93.97483	351.24908	-8.35813	652.6902	782.25388	51.78356	553.77625	946.05515	107.09359	347.4374	969.2746	58.35651	92.91437	934.18983	73.55231	46.05542	1052.33849	96.37619	35.17527	860.51857
122	4.043	188.76385	1607.35825	897.88666	58.13427	1598.26355	886.77338	198.93936	1552.86499	775.72006	72.24667	1545.55679	771.49071	213.33515	1323.27286	912.81731	72.28333	1310.00626	912.24304	209.01548	1396.5979	801.57928	55.32686	1390.49911	813.23761	139.79747	1248.84315	720.30525	144.00768	1239.09134	953.0899	146.64458	1147.24716	980.13306	330.15877	1362.54471	850.01648	374.7073	1146.91483	839.27208	365.87799	1035.65308	824.08516	383.66257	945.88707	902.86583	311.87574	869.71245	1029.45152	375.5611	836.22017	1002.73735	372.35329	829.45732	1065.09766	-34.60235	1342.02484	851.77666	-46.71082	1145.18463	724.54056	-81.18118	1040.11871	723.24982	-72.82963	945.30754	667.68364	-100.16161	807.96082	639.95098	-111.84717	743.92632	654.98817	286.56052	912.9982	858.39569	14.11334	929.24606	892.90459	214.83229	969.2807	695.61218	34.09349	984.8632	715.16304	253.54795	600.92468	732.42729	277.38041	435.14812	822.24213	-63.43013	782.39868	701.58592	268.35564	307.59466	653.72978	262.13812	261.06518	470.03761	220.00633	295.03914	401.07834	244.72088	116.12846	476.09798	-7.14527	658.9772	820.28351	45.02398	547.0768	970.28534	103.68313	344.33331	984.8542	58.219	90.65719	933.32718	72.75485	46.37855	1050.17296	98.32451	35.02922	860.28458
